<svg width="1048" height="1249" viewBox="0 0 1048 1249" fill="none" xmlns="http://www.w3.org/2000/svg">
<g clip-path="url(#clip0_468_4427)">
<path d="M552.95 779.521V1245.18" stroke="white" stroke-width="6" stroke-miterlimit="10"/>
<path d="M758.69 779.521V1245.18" stroke="white" stroke-width="6" stroke-miterlimit="10"/>
<path d="M550.96 1170.32H756.17" stroke="white" stroke-width="6" stroke-miterlimit="10"/>
<path d="M791.38 717.11H518.27C509.097 717.11 501.66 724.547 501.66 733.72V762.91C501.66 772.084 509.097 779.52 518.27 779.52H791.38C800.554 779.52 807.99 772.084 807.99 762.91V733.72C807.99 724.547 800.554 717.11 791.38 717.11Z" fill="white" stroke="#B6B6B6" stroke-width="6" stroke-miterlimit="10"/>
<path d="M752.994 265.113L752.941 265.128L752.888 265.146L753.67 267.52C752.888 265.146 752.888 265.146 752.887 265.146L752.883 265.147L752.864 265.154L752.782 265.18C752.709 265.204 752.598 265.24 752.451 265.287C752.157 265.381 751.717 265.521 751.14 265.7C749.986 266.06 748.285 266.578 746.105 267.213C741.745 268.481 735.476 270.212 727.856 272.053C712.607 275.739 691.992 279.857 670.466 281.62C648.906 283.385 626.616 282.771 607.927 277.121C589.295 271.489 574.447 260.931 567.221 242.872C562.056 229.963 561.642 218.99 564.375 209.691C567.115 200.367 573.093 192.471 581.144 185.876C597.315 172.628 621.475 164.946 642.59 161.783C665.53 158.347 690.403 156.862 712.654 159.732C734.95 162.608 754.253 169.808 766.502 183.404C778.514 196.736 779.224 215.961 774.572 232.857C772.259 241.257 768.66 248.903 764.658 254.694C760.579 260.596 756.366 264.167 752.994 265.113Z" stroke="white" stroke-width="5"/>
<path d="M727.633 229.274L727.582 229.285L727.531 229.298L728.15 231.72C727.531 229.298 727.531 229.298 727.53 229.299L727.527 229.299L727.511 229.303L727.447 229.32C727.389 229.334 727.301 229.356 727.185 229.385C726.953 229.443 726.606 229.53 726.152 229.64C725.244 229.862 723.905 230.184 722.193 230.58C718.768 231.371 713.85 232.461 707.887 233.65C695.955 236.028 679.872 238.797 663.224 240.37C646.544 241.947 629.445 242.309 615.422 239.95C601.258 237.566 591.025 232.547 586.874 224.089C582.345 214.861 581.563 207.413 583.184 201.334C584.808 195.244 588.952 190.122 595.074 185.768C607.432 176.978 627.096 171.848 646.901 168.465C686.384 161.72 722.607 163.865 745.874 183.376C751.504 188.098 753.925 193 754.416 197.648C754.913 202.351 753.47 207.137 750.74 211.62C748.01 216.102 744.069 220.15 739.832 223.28C735.577 226.423 731.185 228.524 727.633 229.274Z" stroke="white" stroke-width="5"/>
<path d="M821.269 1238.42C820.358 1238.98 818.591 1239.6 815.896 1240.18C813.273 1240.74 810.003 1241.22 806.267 1241.59C798.799 1242.35 789.633 1242.71 780.386 1242.69C771.14 1242.67 761.867 1242.26 754.189 1241.49C750.349 1241.11 746.94 1240.63 744.148 1240.08C741.308 1239.52 739.283 1238.91 738.101 1238.32C733.329 1235.92 731.179 1230.54 730.151 1223.12C729.647 1219.49 729.441 1215.61 729.236 1211.69L729.23 1211.58C729.029 1207.75 728.826 1203.86 728.313 1200.37C727.728 1196.39 725.305 1191.86 722.326 1187.4C719.296 1182.86 715.457 1178.05 711.697 1173.47C710.772 1172.34 709.853 1171.23 708.951 1170.14C706.153 1166.76 703.517 1163.57 701.349 1160.71C699.921 1158.83 698.742 1157.14 697.881 1155.7C696.994 1154.2 696.566 1153.16 696.449 1152.51C696.389 1152.18 696.442 1151.51 697.023 1150.36C697.589 1149.24 698.53 1147.92 699.83 1146.42C702.426 1143.44 706.146 1140.09 710.198 1136.68C712.213 1134.98 714.285 1133.29 716.314 1131.63C716.413 1131.55 716.511 1131.47 716.61 1131.39C718.53 1129.83 720.411 1128.29 722.138 1126.84C723.745 1125.49 725.284 1124.16 726.631 1122.9C726.646 1122.92 726.661 1122.95 726.677 1122.98C727.779 1124.79 729.562 1126.2 731.54 1127.28C735.496 1129.46 741.042 1130.81 746.611 1131.47C752.219 1132.13 758.127 1132.11 762.932 1131.36C765.082 1131.02 767.098 1130.52 768.798 1129.83C769.166 1144.76 774.189 1162.52 781.174 1177.49C785.1 1185.91 789.701 1193.57 794.555 1199.44C799.346 1205.24 804.656 1209.63 810.08 1210.92C812.348 1211.47 814.787 1213.06 817.059 1215.49C819.31 1217.89 821.247 1220.95 822.549 1224.12C823.859 1227.32 824.459 1230.45 824.229 1233.02C824.004 1235.54 823.019 1237.34 821.269 1238.42Z" stroke="white" stroke-width="5"/>
<path d="M780.809 1091.16L771.349 1124.69C767.839 1133.06 723.989 1130.23 728.349 1117.31C732.709 1104.39 731.059 1081.94 731.059 1081.94L780.809 1091.16Z" fill="white"/>
<path d="M773.81 1208.45C773.81 1208.45 794.81 1199.07 815.71 1206.45" stroke="white" stroke-width="6" stroke-miterlimit="10" stroke-linecap="round"/>
<path d="M611.608 1238.32C609.073 1239.59 603.738 1240.71 596.591 1241.49C589.577 1242.26 581.187 1242.67 572.823 1242.69C564.457 1242.71 556.174 1242.35 549.373 1241.6C545.97 1241.22 542.977 1240.75 540.55 1240.19C538.067 1239.62 536.379 1239 535.44 1238.42C533.69 1237.34 532.705 1235.54 532.479 1233.02C532.248 1230.45 532.847 1227.31 534.157 1224.12C535.458 1220.95 537.394 1217.89 539.646 1215.49C541.919 1213.06 544.359 1211.47 546.629 1210.92C552.108 1209.62 557.115 1205.17 561.448 1199.34C565.835 1193.44 569.803 1185.77 573.094 1177.35C578.983 1162.29 582.851 1144.5 582.955 1129.61C584.683 1130.18 586.722 1130.48 588.872 1130.6C593.609 1130.86 599.404 1130.22 604.885 1128.92C610.34 1127.62 615.737 1125.59 619.556 1122.92C621.438 1121.6 623.158 1119.94 624.183 1118C625.505 1119.23 627.005 1120.53 628.572 1121.84C630.298 1123.29 632.179 1124.83 634.099 1126.39L634.395 1126.63C636.424 1128.29 638.496 1129.98 640.511 1131.68C644.563 1135.09 648.283 1138.44 650.88 1141.42C652.179 1142.92 653.121 1144.24 653.686 1145.36C654.267 1146.51 654.32 1147.18 654.26 1147.51C653.933 1149.32 652.595 1152.56 650.504 1156.92C649.004 1160.05 647.209 1163.58 645.313 1167.3C644.624 1168.65 643.921 1170.03 643.214 1171.43C640.58 1176.63 637.904 1182.04 635.76 1187.02C633.637 1191.94 631.945 1196.64 631.396 1200.37C630.433 1206.92 628.199 1215.14 624.774 1222.4C621.309 1229.75 616.828 1235.7 611.608 1238.32Z" stroke="white" stroke-width="5"/>
<path d="M558.9 1089.16L580.36 1124.69C583.87 1133.06 626.72 1125.23 622.36 1112.31C618 1099.39 616.65 1078.94 616.65 1078.94L558.9 1089.16Z" fill="white"/>
<path d="M582.9 1208.45C582.9 1208.45 561.95 1199.07 541 1206.45" stroke="white" stroke-width="6" stroke-miterlimit="10" stroke-linecap="round"/>
<path d="M505.14 779.86L503.029 778.52L502.054 780.055L503.214 781.455C516.018 796.912 529.857 821.725 543.461 850.643C557.042 879.513 570.309 912.297 581.999 943.572C593.688 974.842 603.791 1004.57 611.046 1027.33C614.674 1038.71 617.587 1048.33 619.629 1055.52C620.65 1059.12 621.449 1062.09 622.011 1064.37C622.588 1066.7 622.873 1068.15 622.93 1068.78C623.132 1071.01 622.069 1073.23 619.159 1075.52C616.221 1077.84 611.726 1079.94 605.976 1081.79C594.514 1085.48 578.853 1087.93 562.909 1089.47C561.632 1089.6 559.557 1089.12 556.559 1087.6C553.636 1086.11 550.136 1083.79 546.127 1080.65C538.115 1074.39 528.313 1065.08 517.375 1053.41C495.512 1030.07 469.304 997.448 444.075 961.214C418.846 924.981 394.64 885.196 376.752 847.531C358.83 809.793 347.39 774.467 347.39 747.06C347.39 739.891 350.376 731.914 355.937 723.327C361.483 714.763 369.464 705.787 379.144 696.671C398.503 678.442 424.386 659.907 450.368 643.268C476.331 626.641 502.306 611.963 521.797 601.438C531.54 596.177 539.659 591.956 545.339 589.052C548.179 587.599 550.41 586.477 551.928 585.717C552.688 585.338 553.27 585.049 553.661 584.856C553.748 584.812 553.827 584.774 553.895 584.74L553.905 584.738C554.173 584.701 554.572 584.645 555.094 584.574C556.139 584.431 557.678 584.223 559.653 583.966C563.601 583.451 569.287 582.738 576.23 581.946C590.12 580.361 609.029 578.46 629.118 577.192C649.218 575.923 670.449 575.29 688.997 576.232C707.673 577.18 723.199 579.71 732.195 584.497C758.418 598.461 798.623 628.525 833.651 658.417C851.144 673.345 867.287 688.18 879.692 700.874C885.896 707.223 891.141 713.012 895.144 717.992C899.186 723.019 901.83 727.06 902.992 729.937C903.415 730.984 903.656 733.262 903.436 737.062C903.223 740.732 902.609 745.451 901.63 751.099C899.673 762.385 896.293 777.168 891.905 794.273C883.133 828.472 870.381 871.775 857.081 914.589C843.783 957.396 829.948 999.684 819.016 1031.84C813.55 1047.92 808.813 1061.46 805.235 1071.26C803.445 1076.16 801.951 1080.11 800.803 1082.97C800.228 1084.4 799.749 1085.54 799.368 1086.37C799.177 1086.79 799.019 1087.12 798.893 1087.36C798.805 1087.53 798.748 1087.63 798.721 1087.67C798.706 1087.7 798.7 1087.71 798.703 1087.7C798.411 1088.1 797.353 1088.83 794.862 1089.47C792.526 1090.07 789.42 1090.48 785.741 1090.67C778.4 1091.04 769.123 1090.52 759.927 1089.2C750.719 1087.87 741.739 1085.76 734.951 1083.01C731.552 1081.63 728.814 1080.13 726.885 1078.57C724.937 1077 724.046 1075.56 723.834 1074.31C707.71 978.951 715.452 900.46 727.058 845.602C732.861 818.172 739.631 796.647 744.87 781.872C747.49 774.484 749.728 768.78 751.278 764.853L751.51 764.267C752.172 762.589 752.707 761.236 753.067 760.258C753.265 759.721 753.435 759.232 753.547 758.838C753.6 758.649 753.664 758.399 753.699 758.136C753.716 758.007 753.737 757.795 753.722 757.543C753.71 757.347 753.661 756.802 753.292 756.246C752.84 755.568 752.185 755.267 752.009 755.185C751.714 755.047 751.4 754.943 751.118 754.861C750.545 754.694 749.817 754.538 748.988 754.39C747.313 754.091 744.975 753.778 742.084 753.458C736.287 752.818 728.106 752.136 718.198 751.493C698.374 750.208 671.552 749.076 642.897 748.76C583.343 748.103 548.58 755.271 528.607 762.727C518.612 766.458 512.302 770.269 508.444 773.222C506.515 774.699 505.202 775.959 504.35 776.883C503.924 777.345 503.614 777.723 503.4 778.001C503.293 778.14 503.21 778.254 503.149 778.341C503.119 778.385 503.094 778.422 503.074 778.451L503.048 778.491L503.038 778.507L503.033 778.514C503.031 778.517 503.029 778.52 505.14 779.86Z" fill="black" stroke="white" stroke-width="5"/>
<path d="M427.8 403.4C430.67 404.272 430.67 404.271 430.671 404.27L430.672 404.266L430.677 404.25L430.698 404.181L430.782 403.905C430.857 403.661 430.968 403.298 431.115 402.822C431.409 401.872 431.845 400.473 432.408 398.687C433.535 395.115 435.176 389.993 437.227 383.8C441.331 371.41 447.074 354.75 453.637 337.647C460.205 320.53 467.567 303.038 474.905 288.956C478.575 281.913 482.205 275.788 485.69 271.012C489.222 266.17 492.412 262.989 495.123 261.5L495.251 261.43L495.372 261.347C506.274 253.9 526.299 245.124 544.984 238.407C554.287 235.063 563.158 232.265 570.269 230.422C573.828 229.499 576.902 228.828 579.345 228.443C581.906 228.04 583.422 228.014 584.067 228.137L584.278 228.177L584.493 228.187L727.728 234.704C745.698 239.023 768.048 245.833 787.947 254.49C808.109 263.262 825.153 273.681 832.968 284.895C836.934 290.585 842.126 301.369 847.741 314.613C853.32 327.773 859.213 343.111 864.596 357.732C869.977 372.347 874.839 386.22 878.357 396.44C880.115 401.549 881.537 405.745 882.519 408.662C883.01 410.12 883.391 411.259 883.649 412.032C883.778 412.419 883.876 412.715 883.942 412.913L884.017 413.138L884.035 413.194L884.04 413.208L884.041 413.211C884.041 413.212 884.041 413.212 886.89 412.27M427.8 403.4C425.474 405.295 425.473 405.295 425.473 405.294L425.469 405.29L425.457 405.274L425.405 405.211L425.201 404.961L424.406 403.985C423.709 403.13 422.685 401.877 421.381 400.28C418.773 397.087 415.042 392.525 410.551 387.046C401.569 376.088 389.548 361.467 377.391 346.813C365.231 332.156 352.944 317.478 343.427 306.4C338.666 300.858 334.615 296.237 331.627 292.976C330.128 291.341 328.925 290.079 328.047 289.222C327.939 289.117 327.839 289.02 327.745 288.931C327.679 288.978 327.607 289.03 327.532 289.085C326.597 289.776 325.364 290.891 323.895 292.374C320.977 295.319 317.439 299.395 313.986 303.57C310.545 307.73 307.235 311.932 304.782 315.097C303.556 316.678 302.547 317.999 301.844 318.923C301.753 319.043 301.667 319.156 301.586 319.262C301.66 319.579 301.747 319.95 301.846 320.373C302.226 321.987 302.794 324.359 303.546 327.382C305.048 333.428 307.283 342.076 310.206 352.473C316.054 373.273 324.649 401.033 335.647 428.926C346.656 456.849 360.015 484.754 375.346 505.933C390.771 527.242 407.684 541.043 425.64 542.186C456.743 544.167 483.392 526.168 505.699 498.929L509.273 494.565L510.893 499.969C515.885 516.616 520.713 531.806 524.293 542.835C526.083 548.349 527.561 552.822 528.59 555.914C529.105 557.461 529.508 558.662 529.782 559.477C529.919 559.884 530.024 560.194 530.094 560.402L530.174 560.637L530.194 560.696L530.199 560.711L530.2 560.714L530.2 560.715C530.2 560.715 530.2 560.715 527.36 561.68L530.2 560.715L530.224 560.785L530.244 560.856C531.131 563.96 529.718 567.093 527.995 569.653C526.178 572.353 523.46 575.233 520.321 578.158C515.088 583.034 508.271 588.408 501.551 593.705C500.203 594.768 498.859 595.828 497.532 596.88C489.465 603.276 482.102 609.344 477.786 614.403C475.587 616.98 474.523 618.913 474.274 620.208C474.165 620.775 474.237 621.092 474.326 621.29C474.351 621.347 474.387 621.414 474.441 621.492C474.799 621.392 475.216 621.28 475.692 621.156C477.541 620.675 480.274 620.026 483.864 619.334C491.043 617.951 501.649 616.397 515.467 615.679C543.105 614.244 583.573 616.156 635.149 629.455L635.149 629.455C696.179 645.205 741.273 647.06 769.529 643.914C783.709 642.335 793.444 639.518 798.815 636.715C801.591 635.266 802.732 634.061 803.046 633.445C803.056 633.424 803.065 633.406 803.072 633.39C803.024 633.334 802.944 633.253 802.814 633.15C796.58 628.201 788.905 618.033 782.091 606.856C775.23 595.603 768.98 582.895 765.738 572.58L765.551 571.986L765.616 571.367L776.926 463.687L782.7 462.901L782.701 462.9L782.701 462.9L782.701 462.902L782.706 462.913L782.725 462.962C782.743 463.006 782.77 463.074 782.807 463.166C782.88 463.348 782.992 463.622 783.141 463.981C783.438 464.7 783.885 465.762 784.477 467.117C785.66 469.827 787.42 473.708 789.719 478.37C794.322 487.701 801.067 500.122 809.646 512.523C818.235 524.94 828.591 537.231 840.386 546.394C852.176 555.552 865.236 561.46 879.32 561.46C895.669 561.46 912.344 548.866 928.418 528.509C944.356 508.325 959.084 481.297 971.66 454.106C984.223 426.945 994.572 399.765 1001.78 379.363C1005.39 369.165 1008.21 360.669 1010.12 354.725C1010.86 352.429 1011.47 350.514 1011.93 349.029C1000.15 347.92 989.564 343.485 981.769 339.211C977.426 336.83 973.901 334.472 971.454 332.704C970.669 332.137 969.994 331.63 969.437 331.201C956.318 340.973 936.931 360.894 920.362 378.944C911.73 388.347 903.932 397.166 898.292 403.635C895.472 406.869 893.192 409.514 891.618 411.35C890.831 412.268 890.221 412.983 889.808 413.469C889.686 413.612 889.581 413.735 889.494 413.837L889.338 414.021L889.219 414.161L889.19 414.196L889.182 414.205L889.181 414.207C889.18 414.207 889.18 414.207 886.89 412.27M427.8 403.4L430.67 404.272L429.033 409.664L425.474 405.295L427.8 403.4ZM886.89 412.27L889.18 414.207L885.723 418.295L884.041 413.212L886.89 412.27ZM328.516 288.479C328.516 288.48 328.5 288.486 328.471 288.495C328.502 288.482 328.517 288.477 328.516 288.479Z" stroke="white" stroke-width="6"/>
<path d="M886.89 407.87C868.74 428.74 852.34 465.87 852.34 465.87" stroke="white" stroke-width="6" stroke-miterlimit="10"/>
<path d="M772.879 247.57C703.199 241.68 633.239 285.51 633.239 285.51C633.239 285.51 571.739 271.73 559.439 230.79" stroke="white" stroke-width="6" stroke-miterlimit="10"/>
<path d="M529.359 561.68C529.359 561.68 490.899 451.2 485.529 404.61" stroke="white" stroke-width="6" stroke-miterlimit="10" stroke-linecap="round"/>
<path d="M1013.91 266.67C1012.98 272.62 1006.51 281.85 1012.91 281.78C1016.21 281.78 1040.07 277.89 1042.99 286.67C1044.22 290.843 1044 295.311 1042.36 299.34C1047.59 307.15 1043.59 313.53 1043.59 313.53C1046.75 318.39 1047.59 324.68 1045.39 327.45C1045.39 327.45 1050.92 340.2 1045.64 343.16C1029.28 352.36 1003.19 354.27 990.55 351C981.68 348.71 971.04 343.23 968.32 324.35C967.2 316.62 974.9 296.35 980.78 287.99C983.18 284.55 991.97 270.83 994.94 267.07C999.174 261.565 1002.06 255.143 1003.36 248.32C1003.36 248.32 1016.51 250.05 1013.91 266.67Z" fill="white"/>
<path d="M1035.3 285.5C1035.88 289.5 1011.51 290.34 1007.3 291.26C1001.3 292.56 1002.08 305.37 1009.86 304.12C1020.45 303.637 1030.96 302.12 1041.25 299.59" stroke="#F0F0F0" stroke-width="4" stroke-miterlimit="10" stroke-linecap="round"/>
<path d="M1042 313.66C1016.22 318.86 1009.34 318.38 1009.34 318.38C1005.58 319.12 1000.74 305.83 1009.86 304.12" stroke="#F0F0F0" stroke-width="4" stroke-miterlimit="10" stroke-linecap="round"/>
<path d="M1042.64 327C1018.38 332.33 1009.98 331.72 1009.98 331.72C1006.39 332.15 1001.9 319.51 1009.23 318.64" stroke="#F0F0F0" stroke-width="4" stroke-miterlimit="10" stroke-linecap="round"/>
<path d="M1016.77 331.51C1016.77 331.51 1008.1 330.7 1008.23 336.1C1008.47 345.7 1013.12 346.73 1035.07 342.7" stroke="#F0F0F0" stroke-width="4" stroke-miterlimit="10" stroke-linecap="round"/>
<path d="M293.59 237.16C293.79 243.16 299.04 253.02 292.75 252.16C289.49 251.72 266.44 245.03 262.5 253.32C260.772 257.284 260.447 261.718 261.58 265.89C255.48 272.95 258.64 279.73 258.64 279.73C254.94 284.14 253.35 290.24 255.18 293.24C255.18 293.24 248.18 305.13 253.02 308.69C268.02 319.75 293.52 324.8 306.38 323.11C315.38 321.93 326.55 317.82 331.53 299.54C333.53 292.06 328.44 271.19 323.67 262.19C321.72 258.5 314.72 243.91 312.24 239.84C308.751 233.895 306.696 227.218 306.24 220.34C306.24 220.34 293.05 220.46 293.59 237.16Z" fill="white"/>
<path d="M263.49 309.55C284.64 316.19 289.35 315.73 290.76 306.3C291.2 303.3 288.65 301.93 286.34 301.3C287.408 301.509 288.486 301.66 289.57 301.75C292.79 302.54 298.24 291.57 293.41 288.54C295.41 287.54 297.53 280.37 297.52 274C301.25 271.42 301.52 263.77 297.18 262.24C293.09 260.81 269.18 257 270.18 253.14L263.49 309.55Z" fill="white"/>
<path d="M263.87 266.3C273.335 269.954 283.116 272.725 293.09 274.58C300.6 276.75 302.93 264.22 297.18 262.21C293.09 260.78 273.96 254.55 270.18 253.12" stroke="#F0F0F0" stroke-width="3" stroke-miterlimit="10" stroke-linecap="round"/>
<path d="M261.43 280.08C286.21 288.33 291.87 288.7 291.87 288.7C295.48 289.88 301.87 277.38 293.09 274.58" stroke="#F0F0F0" stroke-width="3" stroke-miterlimit="10" stroke-linecap="round"/>
<path d="M258 293.1C281.26 301.31 289.62 301.72 289.62 301.72C293.11 302.59 297.98 289.48 289.42 288.35" stroke="#F0F0F0" stroke-width="3" stroke-miterlimit="10" stroke-linecap="round"/>
<path d="M282.89 300.73C282.89 300.73 291.54 300.99 290.76 306.3C289.35 315.73 284.65 316.18 263.5 309.55" stroke="#F0F0F0" stroke-width="3" stroke-miterlimit="10" stroke-linecap="round"/>
<path d="M697.71 138.21C697.71 138.21 682.48 206.35 728.15 231.72C728.15 231.72 686.15 238.97 632.47 283.18C632.47 283.18 591.15 248.39 584.63 225.18C584.63 225.18 626.63 210.69 622.32 138.18L697.71 138.21Z" fill="white"/>
<path d="M697.71 138.21H622.32C626.67 210.7 584.63 225.21 584.63 225.21C584.63 225.21 668.46 225.21 692.17 150.47L697.71 138.21Z" fill="#F0F0F0"/>
<path d="M698.366 136.397L698.686 135.774L699.285 135.408L699.285 135.408L699.285 135.408L699.286 135.407L699.294 135.402L699.331 135.38C699.365 135.359 699.417 135.326 699.486 135.283C699.624 135.196 699.829 135.066 700.091 134.896C700.615 134.557 701.364 134.061 702.251 133.442C704.031 132.2 706.335 130.485 708.487 128.567C710.67 126.621 712.551 124.592 713.627 122.736C714.725 120.841 714.654 119.757 714.246 119.077C712.941 116.904 710.397 116.507 706.992 117.311C705.401 117.687 703.898 118.276 702.775 118.785C702.219 119.037 701.77 119.263 701.464 119.424C701.311 119.504 701.195 119.567 701.12 119.609C701.1 119.62 701.084 119.629 701.07 119.637C701.058 119.644 701.048 119.649 701.04 119.654L701.026 119.661L701.025 119.662L701.025 119.662L701.024 119.663L701.023 119.663L696.749 122.149L697.284 117.231L697.284 117.23L697.284 117.23L697.285 117.224L697.288 117.188C697.292 117.155 697.297 117.104 697.304 117.034C697.317 116.894 697.336 116.681 697.359 116.4C697.404 115.838 697.463 115.005 697.515 113.94C697.618 111.808 697.693 108.754 697.575 105.089C697.339 97.7435 696.331 88.031 693.282 78.4217C690.231 68.8106 685.183 59.4412 676.957 52.5877C668.776 45.7712 657.238 41.2639 640.837 41.7095L640.837 41.7095C624.037 42.1657 611.871 50.7288 603.672 63.5584C595.418 76.4729 591.227 93.6836 590.687 111.012C590.147 128.337 593.266 145.492 599.34 158.217C605.449 171.014 614.188 178.71 624.698 178.71L698.366 136.397ZM698.366 136.397L698.366 136.398M698.366 136.397L698.366 136.398M698.365 136.399L698.357 136.414C698.349 136.429 698.336 136.455 698.317 136.49C698.279 136.561 698.22 136.672 698.138 136.819C697.974 137.115 697.722 137.558 697.38 138.129C696.694 139.27 695.648 140.918 694.223 142.904C691.373 146.878 687.023 152.189 681.046 157.499C669.11 168.105 650.705 178.7 624.699 178.71L698.365 136.399ZM698.365 136.399L698.365 136.399M698.365 136.399L698.365 136.399M698.366 136.398L698.365 136.399M698.366 136.398L698.365 136.399" fill="white" stroke="white" stroke-width="5"/>
<path d="M761.29 92.3302C761.29 118.75 729.4 141.59 694.09 157.09C692 158.01 688.62 158.22 684.34 157.88C690.791 151.995 696.275 145.131 700.59 137.54C700.59 137.54 720.7 125 716.35 117.79C712 110.58 699.73 117.49 699.73 117.49C699.73 117.49 705.84 61.6402 668.45 44.2902C668.16 44.8302 658.45 61.9502 629.75 62.8602C602.45 63.7102 595 74.1202 591.88 85.0002C591.78 85.3802 591.68 85.7502 591.59 86.1302C588.072 100.602 587.231 115.596 589.11 130.37L588.95 130.31C586.3 127.09 550.09 81.2002 559.54 56.5902C569.81 29.8402 635.45 -7.88982 688 1.45018C717.35 6.68018 761.28 78.4402 761.29 92.3302Z" fill="#FFF1B5"/>
<path d="M523.28 471H120.53C115.003 470.993 109.618 469.252 105.133 466.023C100.648 462.794 97.2895 458.239 95.5296 453L10.1697 198.83C9.23198 196.037 8.97236 193.061 9.41223 190.148C9.8521 187.234 10.9788 184.468 12.6994 182.076C14.4199 179.684 16.6848 177.736 19.307 176.393C21.9292 175.049 24.8334 174.349 27.7797 174.35H430.53C436.056 174.359 441.44 176.1 445.925 179.329C450.409 182.558 453.769 187.112 455.53 192.35L540.84 446.46C541.788 449.253 542.057 452.231 541.625 455.148C541.194 458.066 540.073 460.838 538.357 463.237C536.641 465.635 534.378 467.59 531.756 468.94C529.135 470.29 526.229 470.996 523.28 471Z" fill="#727272"/>
<path d="M514.09 480.91H111.33C105.803 480.903 100.418 479.162 95.9334 475.933C91.4485 472.704 88.0896 468.149 86.3297 462.91L0.999729 208.79C0.0623296 205.998 -0.197418 203.023 0.241935 200.11C0.681287 197.198 1.80713 194.431 3.52652 192.04C5.2459 189.648 7.50949 187.7 10.1304 186.356C12.7513 185.012 15.6543 184.311 18.5997 184.31H421.34C426.866 184.317 432.251 186.058 436.736 189.287C441.221 192.517 444.58 197.071 446.34 202.31L531.66 456.43C532.596 459.22 532.856 462.192 532.419 465.103C531.981 468.013 530.858 470.777 529.142 473.168C527.426 475.559 525.166 477.508 522.549 478.854C519.932 480.2 517.033 480.905 514.09 480.91Z" fill="white"/>
<path d="M523.28 470.18H120.53C115.003 470.174 109.617 468.434 105.132 465.205C100.647 461.975 97.2882 457.42 95.5296 452.18L10.1697 198.06C9.23198 195.267 8.97236 192.291 9.41223 189.378C9.8521 186.464 10.9788 183.698 12.6994 181.306C14.4199 178.914 16.6848 176.966 19.307 175.623C21.9292 174.279 24.8334 173.579 27.7797 173.58H430.53C436.056 173.589 441.44 175.33 445.925 178.559C450.409 181.788 453.769 186.342 455.53 191.58L540.88 445.7C541.817 448.492 542.077 451.468 541.637 454.38C541.198 457.293 540.072 460.059 538.353 462.45C536.633 464.842 534.37 466.79 531.749 468.134C529.128 469.478 526.225 470.179 523.28 470.18V470.18Z" stroke="#B6B6B6" stroke-width="6" stroke-miterlimit="10"/>
<path d="M349.08 390.53L379.72 466.78H313.5C313.5 466.78 326.37 407.13 349.08 390.53Z" fill="#848484"/>
<path d="M393.119 562.41C262.729 562.41 317.559 422.88 343.489 393.9H243.139C217.219 422.9 147.069 570.07 277.449 570.07H393.119V562.41Z" fill="white" stroke="#B6B6B6" stroke-width="6" stroke-miterlimit="10"/>
<path d="M282.433 327.396C288.052 318.495 283.516 305.541 272.303 298.463C261.09 291.385 247.445 292.863 241.826 301.765C236.207 310.667 240.743 323.621 251.956 330.698C263.169 337.776 276.815 336.298 282.433 327.396Z" fill="#B5B5B5"/>
<path d="M288.838 321.993C294.457 313.092 289.922 300.138 278.708 293.06C267.495 285.982 253.85 287.461 248.231 296.362C242.612 305.264 247.148 318.218 258.361 325.296C269.575 332.373 283.22 330.895 288.838 321.993Z" stroke="#B6B6B6" stroke-width="6" stroke-miterlimit="10"/>
<path d="M93.75 570.07H690.92C699.7 570.07 706.82 576.71 706.82 584.91C706.82 593.1 699.7 599.74 690.92 599.74H93.75V570.07Z" fill="white"/>
<path d="M93.75 570.07H690.92C699.7 570.07 706.82 576.71 706.82 584.91C706.82 593.1 699.7 599.74 690.92 599.74H93.75" stroke="#B6B6B6" stroke-width="6" stroke-miterlimit="10"/>
</g>
<defs>
<clipPath id="clip0_468_4427">
<rect width="1047.92" height="1248.68" fill="white"/>
</clipPath>
</defs>
</svg>
